<svg width="22" height="23" viewBox="0 0 22 23" fill="none" xmlns="http://www.w3.org/2000/svg">
<path d="M21 16.1076V19.1076C21.0011 19.3861 20.9441 19.6618 20.8325 19.9169C20.7209 20.1721 20.5573 20.4012 20.3521 20.5895C20.1468 20.7777 19.9046 20.9211 19.6407 21.0103C19.3769 21.0995 19.0974 21.1327 18.82 21.1076C15.7428 20.7732 12.787 19.7217 10.19 18.0376C7.77382 16.5023 5.72533 14.4538 4.18999 12.0376C2.49997 9.4288 1.44824 6.45859 1.11999 3.3676C1.095 3.09106 1.12787 2.81236 1.21649 2.54922C1.30512 2.28609 1.44756 2.04429 1.63476 1.83922C1.82196 1.63415 2.0498 1.47031 2.30379 1.35812C2.55777 1.24593 2.83233 1.18786 3.10999 1.1876H6.10999C6.5953 1.18282 7.06579 1.35468 7.43376 1.67113C7.80173 1.98758 8.04207 2.42704 8.10999 2.9076C8.23662 3.86766 8.47144 4.81032 8.80999 5.7176C8.94454 6.07552 8.97366 6.46451 8.8939 6.83848C8.81415 7.21244 8.62886 7.55571 8.35999 7.8276L7.08999 9.0976C8.51355 11.6011 10.5864 13.674 13.09 15.0976L14.36 13.8276C14.6319 13.5587 14.9751 13.3734 15.3491 13.2937C15.7231 13.2139 16.1121 13.2431 16.47 13.3776C17.3773 13.7161 18.3199 13.951 19.28 14.0776C19.7658 14.1461 20.2094 14.3908 20.5265 14.7651C20.8437 15.1394 21.0122 15.6172 21 16.1076Z" stroke="#959595" stroke-width="2" stroke-linecap="round" stroke-linejoin="round"/>
</svg>
